<?xml version="1.0" encoding="utf-8"?>
<!-- Generator: Adobe Illustrator 26.0.3, SVG Export Plug-In . SVG Version: 6.00 Build 0)  -->
<svg version="1.0" id="katman_1" xmlns="http://www.w3.org/2000/svg" xmlns:xlink="http://www.w3.org/1999/xlink" x="0px" y="0px"
	 viewBox="0 0 600 450" style="enable-background:new 0 0 600 450;" xml:space="preserve">
<g transform="translate(.655147)">
	<path d="M106.7,201.9c0,0.5-0.4,1.1-1.1,1.1c-0.2,0-0.4,0-0.7,0c-1.1-0.2-3.2-0.5-5.1-0.5c-1.9,0-3.2,0.2-4,0.9
		c-0.7,0.7-1.1,1.8-1.1,3.3v4.7h10.5c0.7,0,1.4,0.5,1.4,1.2v7.9c0,0.7-0.5,1.2-1.4,1.2H94.8v32.9c0,0.7-0.5,1.2-1.4,1.2H81.1
		c-0.9,0-1.4-0.5-1.4-1.2v-32.9H73c-0.9,0-1.4-0.4-1.4-1.2v-7.9c0-0.7,0.5-1.2,1.4-1.2h6.7v-5.3c0-9.3,4.9-14,15.2-14
		c6.7,0,10.7,1.1,11.9,1.4c0.9,0.2,1.1,1.1,0.9,1.4L106.7,201.9z"/>
	<path d="M130.9,258.7c-19.8,0-22.3-10.2-22.3-23.5c0-13.1,2.5-23.5,22.3-23.5c19.8,0,22.4,10.3,22.4,23.5
		C153.3,248.6,150.9,258.7,130.9,258.7z M130.9,221.6c-6.7,0-7,3.9-7,13.7c0,9.6,0.4,13.7,7,13.7c6.8,0,7-3.9,7-13.7
		C138.1,225.4,137.7,221.6,130.9,221.6z"/>
	<path d="M184.7,222.4c-4.9,0-9.1,0.5-9.8,0.7v32.9c0,0.7-0.5,1.2-1.4,1.2h-12.3c-0.7,0-1.4-0.5-1.4-1.2v-37.7c0-3,2.8-4,7.9-5.1
		c4.2-0.9,10-1.6,15.2-1.6h1.4c0.7,0,1.2,0.2,1.6,0.5c0.2,0.2,0.4,0.7,0.4,1.4v6.8C186.4,221.6,186.4,222.4,184.7,222.4z"/>
	<path d="M260,257.7h-12.3c-0.9,0-1.4-0.5-1.4-1.2v-29.1c0-4.6-2.3-6-5.6-6c-2.8,0-6,0.5-6.8,0.7v34.2c0,0.7-0.5,1.2-1.4,1.2h-12.3
		c-0.9,0-1.4-0.5-1.4-1.2v-28.9c0-4.6-1.9-6-5.4-6c-2.6,0-6.3,0.5-7.2,0.7v34.2c0,0.7-0.5,1.2-1.4,1.2h-12.3c-0.9,0-1.4-0.5-1.4-1.2
		v-37.5c0-3.2,2.6-4,7.9-5.3c4.2-0.9,10.9-1.8,16.3-1.8c5.4,0,9.1,1.2,11.6,2.8c1.6-0.5,8.9-2.8,16.3-2.8c11,0,18.2,2.5,18.2,13.5
		v31C261.4,257.2,260.9,257.7,260,257.7z"/>
	<path d="M286.5,255c0,0.5-0.4,0.7-0.7,0.9c-0.9,0.4-3,1.1-6.1,1.1c-5.3,0-8.6-2.5-8.6-8.8v-53.6c0-0.7,0.4-1.1,1.1-1.2l4.7-1.2
		c0.5-0.2,1.1,0.4,1.1,1.1V248c0,3,2.1,3.5,3.9,3.5c1.2,0,2.5-0.2,3-0.4h0.4c0.2,0,0.5,0,0.7,0.5l0.5,3
		C286.5,255,286.5,255,286.5,255z"/>
	<path d="M319.1,257.5c-2.5,0.5-6.7,1.2-11.2,1.2c-7.4,0-19.8-0.2-19.8-14c0-11.2,6.1-11.9,14.9-13.3l16.3-2.6v-4c0-2.8,0-4.9-3.2-6
		c-1.6-0.7-4-1.1-7.9-1.1c-6.7,0-12.3,1.6-15.9,2.5c-0.9,0.2-1.2,0-1.4-0.5l-0.7-3.9c-0.2-0.7,0.5-1.1,0.9-1.2
		c2.8-1.1,10.2-2.6,18.1-2.6c6.1,0,10.2,0.9,12.6,2.3c4.4,2.3,4.6,6.3,4.6,10.3v24.4C326.3,254.7,325.1,256.1,319.1,257.5z
		 M319.4,234l-16.8,2.8c-3.9,0.7-7.4,1.2-7.4,7.5c0,8.6,7,9.1,12.8,9.1c3.9,0,7.9-0.5,11.4-1.8V234z"/>
	<path d="M343.1,212.8c2.3-0.7,9.1-2.3,14.5-2.3c14.4,0,18.2,7.2,18.2,23.3c0,16.6-4.6,23.7-20.2,23.7c-6.1,0-11.7-1.1-14.5-1.9
		c-4.4-1.4-4.6-3.5-4.6-6.7v-54.5c0-0.7,0.4-0.9,1.1-1.1l4.7-1.2c0.7-0.2,1.1,0.5,1.1,1.1v14.9L343.1,212.8z M356.4,216
		c-4.7,0-11.4,1.6-13,2.1v32.4c0.9,0.4,5.4,1.6,12.1,1.6c10,0,13.3-4.6,13.3-18.1C368.9,220.2,366.4,216,356.4,216z"/>
	<path d="M395.3,258.7c-7.5,0-14.2-2.3-15.2-2.8c-0.4-0.2-0.9-0.4-0.5-1.4l0.7-3.2c0.2-0.5,0.4-1.1,1.4-0.7c0.2,0,6.5,2.5,13.8,2.5
		c7.4,0,11.6-2.3,11.6-7.5c0-7-5.4-6.8-12.3-7.9c-4.2-0.7-15.1-1.4-15.1-12.6c0-11,10-13.3,17.5-13.3c7.4,0,13.1,1.6,14.2,1.8
		c0.5,0.2,0.9,0.5,0.7,1.1l-0.5,3.9c0,0.5-0.4,0.7-0.9,0.7c-1.2-0.2-7.5-1.6-12.6-1.6c-6.1,0-11.4,1.8-11.4,7
		c0,5.8,5.8,6.5,11.2,7.2c7.7,1.1,16.1,1.6,16.1,13.1C413.9,255.9,405.3,258.7,395.3,258.7z"/>
	<path d="M527.3,202.5c-1.1,3.3-3.3,5.8-5.1,8.6c-4.6,7-9.1,13.8-13.7,20.7c-0.2,0.2-0.2,0.4-0.4,0.5c1.6,1.1,3,1.9,4.6,3.2
		c0.7,0.5,1.2,1.1,1.6,1.8c0.9,1.6,0.4,3.5-1.1,4.7c-5.3,4.4-10.5,8.6-15.8,13c-2.8,2.3-6,1.1-7-1.9c-3.7-11-7.5-21.9-11.4-32.8
		c0-0.2-0.2-0.4-0.4-0.7c-0.4,0.9-0.5,1.4-0.7,2.1c-3.5,10.3-7.2,20.7-10.7,31c-0.2,0.4-0.2,0.7-0.4,1.1c-1.1,2.6-4,3.5-6.3,1.8
		c-2.1-1.8-4.2-3.5-6.5-5.3c-3.2-2.6-6.3-5.3-9.5-7.7c-2.6-2.1-2.5-4.9,0.4-6.8c1.6-1.1,3.2-2.1,4.7-3.2c-0.7-0.9-1.2-1.8-1.8-2.6
		c-5.4-8.1-10.9-15.9-16.5-24c-1.9-2.8-1.2-7.5,2.1-9.3c1.9-0.9,3.7-2.1,5.6-3.2c2.1-1.2,4.4-1.2,6.5,0.2
		c10.7,6.3,21.4,12.6,32.1,18.9c0.7,0.4,1.1,0.4,1.8,0c10.7-6.3,21.2-12.6,31.9-18.9c2.3-1.4,4.6-1.4,6.8,0c1.8,1.1,3.5,2.1,5.3,3
		c1.9,0.9,2.8,2.6,3.3,4.4c0,0.2,0.2,0.4,0.2,0.5C527.3,201.4,527.3,201.9,527.3,202.5L527.3,202.5z M521.5,205.1
		C521.5,204.9,521.5,204.9,521.5,205.1c-12.6,3.5-25.1,7.2-37.9,10.9c7.2,4.7,14.2,9.5,21.4,14.2
		C510.5,221.6,516.1,213.3,521.5,205.1z M474.4,215.8c-12.6-3.7-25.1-7.4-37.3-10.9c0,0,0,0.2-0.2,0.2c5.6,8.2,11.2,16.5,16.8,24.7
		C460.7,225.1,467.5,220.5,474.4,215.8z M463.7,251.5c2.8-8.1,5.4-16.1,8.2-24c-0.4,0.2-0.4,0.4-0.5,0.5c-2.6,3.7-5.3,7.2-7.9,10.9
		c-0.4,0.5-0.7,1.1-1.1,1.4c-1.6,2.1-4.9,1.9-6.3-0.2c-1.1-1.6-2.1-3-3.2-4.6c-1.6,1.1-3.2,2.1-4.7,3.2
		C453.2,243.1,458.3,247.3,463.7,251.5z M436,200.2c8.9,2.6,17.9,5.3,26.6,7.9c0-0.2-0.2-0.4-0.4-0.4c-6.1-3.7-12.1-7.2-18.2-10.9
		c-0.7-0.4-1.4-0.4-2.1,0c-1.4,0.9-2.8,1.6-4.2,2.5C437,199.5,436.7,199.7,436,200.2z M467.7,225.8
		C467.5,225.8,467.5,225.6,467.7,225.8c-3.9,2.5-7.7,4.9-11.4,7.5c1.1,1.4,1.9,2.8,3,4.2C462.1,233.5,464.9,229.6,467.7,225.8z"/>
</g>
</svg>
